<svg class="icon" xmlns="http://www.w3.org/2000/svg">
    <g id="icon-parent_node" fill="currentColor" fill-rule="evenodd">
        <circle cx="21" cy="26" r="2"/>
        <circle cx="21" cy="6" r="2"/>
        <circle cx="4" cy="16" r="2"/>
        <path d="M28,12a3.9962,3.9962,0,0,0-3.8579,3H19.8579a3.9655,3.9655,0,0,0-5.4914-2.6426L11.19,8.3872A3.9626,3.9626,0,0,0,12,6a4,4,0,1,0-4,4,3.96,3.96,0,0,0,1.6338-.3574l3.176,3.97a3.9239,3.9239,0,0,0,0,4.7744l-3.1758,3.97A3.96,3.96,0,0,0,8,22a4,4,0,1,0,4,4,3.9624,3.9624,0,0,0-.81-2.3872l3.1758-3.97A3.9658,3.9658,0,0,0,19.8579,17h4.2842A3.9934,3.9934,0,1,0,28,12ZM6,6A2,2,0,1,1,8,8,2.0023,2.0023,0,0,1,6,6ZM8,28a2,2,0,1,1,2-2A2.0023,2.0023,0,0,1,8,28Zm8-10a2,2,0,1,1,2-2A2.0023,2.0023,0,0,1,16,18Zm12,0a2,2,0,1,1,2-2A2.0023,2.0023,0,0,1,28,18Z"/>
    </g>
    <g id="icon-children" fill="currentColor" fill-rule="evenodd">
        <path d="M8 30H2V24H8zM4 28H6V26H4zM19 30H13V24h6zm-4-2h2V26H15zM30 30H24V24h6zm-4-2h2V26H26zM16 10a4 4 0 114-4A4.0045 4.0045 0 0116 10zm0-6a2 2 0 102 2A2.002 2.002 0 0016 4zM26 16H21a4.0045 4.0045 0 01-4-4H15a4.0045 4.0045 0 01-4 4H6a2.0023 2.0023 0 00-2 2v4H6V18h5A5.9694 5.9694 0 0015 16.46V22h2V16.46A5.9694 5.9694 0 0021 18h5v4h2V18A2.0023 2.0023 0 0026 16z"/>
    </g>
    <g id="icon-timeline" fill="currentColor" fill-rule="evenodd">
        <path d="M15 21a3 3 0 01-3 3h-.1a5 5 0 100 2H12a5 5 0 005-5zM7 28a3 3 0 113-3A3 3 0 017 28zM15 13H17V19H15zM25 2a5 5 0 00-4.9 4H20a5 5 0 00-5 5h2a3 3 0 013-3h.1A5 5 0 1025 2zm0 8a3 3 0 113-3A3 3 0 0125 10z"/>
    </g>
    <g id="icon-history" fill="currentColor" fill-rule="evenodd">
        <path d="M20 30H17a2.0021 2.0021 0 01-2-2V23h2v5h3V23h2V19a1.0011 1.0011 0 00-1-1H12.2793l-2-6H4a1.0011 1.0011 0 00-1 1v6H5v9H9V21h2v7a2.0021 2.0021 0 01-2 2H5a2.0021 2.0021 0 01-2-2V21a2.0021 2.0021 0 01-2-2V13a3.0033 3.0033 0 013-3h6.2793a1.998 1.998 0 011.8975 1.3674L13.7207 16H21a3.0033 3.0033 0 013 3v4a2.0021 2.0021 0 01-2 2v3A2.0021 2.0021 0 0120 30zM28 30H26V19h3V13a1.0011 1.0011 0 00-1-1H24V10h4a3.0033 3.0033 0 013 3v6a2.0021 2.0021 0 01-2 2H28zM7 9a4 4 0 114-4A4.0045 4.0045 0 017 9zM7 3A2 2 0 109 5 2.0021 2.0021 0 007 3zM25 9a4 4 0 114-4A4.0045 4.0045 0 0125 9zm0-6a2 2 0 102 2A2.0021 2.0021 0 0025 3z"/>
        <path d="M18.5,15A3.5,3.5,0,1,1,22,11.5,3.5041,3.5041,0,0,1,18.5,15Zm0-5A1.5,1.5,0,1,0,20,11.5,1.5017,1.5017,0,0,0,18.5,10Z"/>
    </g>
    <g id="icon-tree" fill="currentColor" fill-rule="evenodd">
        <path d="M10 15H22V17H10zM8.7 6.2852A2.9665 2.9665 0 009 5 3 3 0 106 8a2.96 2.96 0 001.2852-.3008L10 10.4141V13h2V9.5859zM6 6A1 1 0 117 5 1.0009 1.0009 0 016 6zM19 5a3 3 0 10-4 2.8154V13h2V7.8159A2.9957 2.9957 0 0019 5zM16 6a1 1 0 111-1A1.0009 1.0009 0 0116 6zM26 2a3.0033 3.0033 0 00-3 3 2.9665 2.9665 0 00.3 1.2852L20 9.5859V13h2V10.4141l2.7148-2.7149A2.96 2.96 0 0026 8a3 3 0 000-6zm0 4a1 1 0 111-1A1.0009 1.0009 0 0126 6zM12 19H10v2.5859L7.2854 24.3008A2.9609 2.9609 0 006 24a3 3 0 103 3 2.9665 2.9665 0 00-.3-1.2852L12 22.4141zM6 28a1 1 0 111-1A1.0009 1.0009 0 016 28zM17 24.1841V19H15v5.1841a3 3 0 102 0zM16 28a1 1 0 111-1A1.0009 1.0009 0 0116 28zM26 24a2.9609 2.9609 0 00-1.2854.3008L22 21.5859V19H20v3.4141l3.3 3.3007A2.9665 2.9665 0 0023 27a3 3 0 103-3zm0 4a1 1 0 111-1A1.0009 1.0009 0 0126 28z"/>
    </g>
    <g id="icon-cancel" fill="currentColor" fill-rule="evenodd">
        <path d="M16,4c6.6,0,12,5.4,12,12s-5.4,12-12,12S4,22.6,4,16S9.4,4,16,4 M16,2C8.3,2,2,8.3,2,16s6.3,14,14,14s14-6.3,14-14 S23.7,2,16,2z"/>
        <path d="M8 15H24V17H8z"/>
    </g>
</svg>
